<?xml version="1.0" standalone="no"?>
<!DOCTYPE svg PUBLIC "-//W3C//DTD SVG 20010904//EN"
 "http://www.w3.org/TR/2001/REC-SVG-20010904/DTD/svg10.dtd">
<svg version="1.0" xmlns="http://www.w3.org/2000/svg"
 width="236.000000pt" height="236.000000pt" viewBox="0 0 236.000000 236.000000"
 preserveAspectRatio="xMidYMid meet">
<metadata>
Created by potrace 1.10, written by Peter Selinger 2001-2011
</metadata>
<g transform="translate(0.000000,236.000000) scale(0.100000,-0.100000)"
fill="#000000" stroke="none">
<path d="M685 2018 c-80 -30 -154 -106 -175 -179 -27 -95 3 -210 72 -275 39
-37 58 -48 563 -314 270 -143 471 -253 488 -268 21 -19 22 -36 1 -56 -14 -14
-67 -16 -439 -16 -394 0 -424 1 -445 18 -19 15 -21 22 -12 39 11 20 21 21 277
25 258 4 266 5 288 26 37 37 6 66 -177 161 l-98 51 -145 0 c-79 0 -163 -5
-186 -11 -154 -38 -241 -228 -173 -375 26 -56 80 -115 126 -139 58 -30 179
-37 601 -33 411 3 414 3 467 27 155 70 214 250 128 393 -37 63 -81 93 -286
201 -80 41 -183 96 -230 121 -47 25 -192 103 -323 172 -130 69 -244 135 -252
147 -18 26 -3 57 28 57 25 -1 56 -16 337 -166 113 -61 215 -113 227 -116 33
-9 58 15 135 130 39 59 80 117 91 130 23 25 65 29 73 7 11 -27 -4 -58 -81
-174 -41 -63 -75 -124 -75 -137 0 -27 39 -61 107 -93 50 -23 53 -23 78 -7 23
15 152 202 191 277 8 17 18 55 21 83 15 149 -98 290 -244 303 -108 10 -192
-31 -259 -124 -21 -31 -48 -67 -60 -81 l-20 -25 -222 114 c-217 111 -224 114
-295 116 -39 1 -85 -3 -102 -9z m404 -155 l232 -121 51 77 c69 103 85 120 143
147 156 74 335 -39 335 -212 0 -66 -8 -83 -109 -241 l-85 -131 -65 36 c-36 19
-68 37 -70 39 -2 1 38 65 88 142 82 123 92 143 86 170 -8 36 -48 71 -81 71
-37 0 -74 -41 -159 -174 -44 -69 -83 -125 -87 -126 -4 0 -129 65 -277 144
-148 79 -283 147 -300 151 -61 13 -116 -77 -77 -127 7 -10 242 -139 522 -288
336 -179 522 -283 546 -307 119 -116 66 -334 -91 -382 -26 -7 -184 -11 -505
-11 -514 0 -508 -1 -575 63 -47 45 -71 101 -71 170 0 69 19 120 63 166 58 61
93 71 262 71 l150 0 142 -72 c79 -40 143 -75 143 -78 0 -3 -124 -4 -275 -2
l-275 3 -30 -30 c-46 -45 -38 -100 17 -129 15 -9 147 -12 463 -12 l441 0 24
25 c28 27 34 80 13 108 -7 8 -247 140 -533 292 -286 152 -530 286 -542 297
-59 55 -81 175 -47 256 20 49 69 100 119 124 31 15 56 18 111 15 68 -4 80 -8
303 -124z"/>
<path d="M565 535 c-30 -29 -31 -57 -6 -99 17 -27 18 -38 9 -79 -9 -44 -8 -51
13 -73 26 -27 51 -31 69 -9 16 19 34 19 50 0 21 -25 84 -19 120 11 l31 27 23
-22 c15 -14 40 -23 71 -26 39 -3 51 0 71 20 13 13 24 31 24 40 0 8 4 15 9 15
5 0 16 3 25 6 11 4 16 0 16 -14 0 -10 9 -30 19 -43 17 -22 27 -25 107 -27 82
-1 90 0 114 23 l26 25 24 -25 c13 -14 31 -25 41 -25 25 0 65 52 73 94 8 40 17
49 40 40 11 -4 16 -19 16 -44 0 -22 8 -47 19 -62 19 -23 25 -24 139 -26 138
-1 146 3 156 78 19 128 19 135 -4 155 -18 16 -38 19 -145 21 -70 1 -133 7
-145 14 -14 7 -40 9 -70 5 -37 -5 -54 -3 -75 11 -25 16 -27 16 -53 -3 -15 -11
-29 -30 -32 -42 l-5 -23 -27 21 c-25 20 -36 21 -160 16 -159 -5 -128 -5 -319
-2 -140 3 -159 6 -191 25 -44 27 -44 27 -73 -3z m55 -35 c0 -16 7 -20 30 -20
17 0 30 -2 30 -4 0 -7 -30 -138 -36 -158 -3 -11 -15 -18 -28 -18 l-23 0 18 68
c23 85 24 82 -6 82 -22 0 -25 4 -25 35 0 28 4 35 20 35 13 0 20 -7 20 -20z
m800 0 c0 -16 7 -20 30 -20 34 0 33 1 19 -60 -25 -112 -29 -120 -53 -120 l-23
0 18 68 c23 85 24 82 -6 82 -22 0 -25 4 -25 35 0 28 4 35 20 35 13 0 20 -7 20
-20z m150 -4 c0 -1 -5 -17 -11 -35 -15 -42 -36 -41 -33 2 l3 32 -11 -32 c-14
-43 -28 -42 -28 2 0 34 1 35 40 35 22 0 40 -2 40 -4z m-825 -91 c5 -49 11 -75
19 -72 14 5 21 117 6 117 -5 0 -10 7 -10 15 0 10 10 15 30 15 l30 0 0 -74 c0
-88 -12 -106 -71 -106 -30 0 -39 4 -39 18 0 9 -3 50 -7 90 -5 68 -4 72 15 72
18 0 21 -8 27 -75z m152 25 c2 -47 1 -50 -22 -50 -23 0 -25 4 -25 50 0 45 2
50 23 50 20 0 22 -5 24 -50z m87 -2 c4 -29 10 -70 13 -90 5 -34 3 -38 -16 -38
-15 0 -21 6 -21 22 l0 22 -16 -22 c-8 -12 -22 -22 -30 -22 -22 0 -16 34 9 45
18 9 21 17 19 50 -2 22 -10 44 -18 48 -27 15 -16 37 20 37 33 0 34 -1 40 -52z
m86 2 c0 -47 -2 -50 -25 -50 -23 0 -25 3 -25 50 0 47 2 50 25 50 23 0 25 -3
25 -50z m120 30 c0 -11 -4 -20 -9 -20 -4 0 -6 -31 -3 -70 l5 -70 -27 0 c-26 0
-26 1 -26 76 0 71 -1 75 -20 69 -16 -5 -20 -2 -20 14 0 18 6 21 50 21 43 0 50
-3 50 -20z m108 -50 c-2 -38 0 -70 4 -70 4 0 8 -9 8 -20 0 -18 -7 -20 -55 -20
-49 0 -55 2 -55 21 0 18 4 20 25 15 25 -6 25 -5 25 54 0 56 -1 60 -22 57 -14
-1 -23 4 -26 16 -3 14 4 17 48 17 l52 0 -4 -70z m390 58 c7 -7 12 -43 12 -90
0 -71 -2 -78 -20 -78 -17 0 -19 8 -22 73 l-3 72 -32 -3 c-28 -3 -33 0 -33 17
0 18 6 21 43 21 24 0 48 -5 55 -12z m93 -30 l14 -43 3 43 c3 36 6 42 25 42 20
0 22 -4 19 -42 -2 -24 -11 -49 -20 -55 -14 -12 -14 -16 1 -48 l17 -35 -55 0
c-49 0 -55 2 -55 21 0 16 4 19 20 14 27 -9 25 3 -9 80 l-30 65 28 0 c24 0 30
-6 42 -42z m-405 -47 c-2 -9 -7 -29 -10 -44 -11 -47 -26 -19 -26 46 l1 62 20
-24 c11 -13 18 -31 15 -40z m259 -36 c0 -50 -2 -55 -22 -55 -21 0 -23 5 -23
55 0 50 2 55 23 55 20 0 22 -5 22 -55z"/>
</g>
</svg>
